<svg width="732" height="1035" viewBox="0 0 732 1035" fill="none" xmlns="http://www.w3.org/2000/svg">
<path opacity="0.5" d="M203.5 361.5C286.2 313.2 354.6 358.4 366.7 462.5C368.8 480.6 355.1 504.4 338.5 514.1L68.6 671.6C52 681.3 38.3 673.5 40.3 653C52.4 534.8 120.8 409.7 203.5 361.5Z" fill="url(#paint0_linear_291_5506)"/>
<path opacity="0.5" d="M111.3 226.2C111.3 298.1 152.9 332.1 204.2 302.1C255.5 272.2 297 189.6 297 117.8C297 45.8998 255.4 11.8998 204.1 41.8998C152.8 71.7998 111.3 154.4 111.3 226.2Z" fill="url(#paint1_linear_291_5506)"/>
<path opacity="0.07" d="M163.5 331.5C246.2 283.2 314.6 328.4 326.7 432.5C328.8 450.6 315.1 474.4 298.5 484.1L28.6 641.6C12 651.3 -1.7 643.5 0.299995 623C12.4 504.8 80.8 379.7 163.5 331.5Z" fill="url(#paint2_linear_291_5506)"/>
<path opacity="0.07" d="M71.2998 196.2C71.2998 268.1 112.9 302.1 164.2 272.1C215.4 242.2 257 159.7 257 87.7998C257 15.8998 215.4 -18.1002 164.1 11.8998C112.8 41.7998 71.2998 124.4 71.2998 196.2Z" fill="url(#paint3_linear_291_5506)"/>
<path opacity="0.2" d="M545.6 398.2L731.9 290.7V387.7L545.6 495.3V398.2Z" fill="url(#paint4_linear_291_5506)"/>
<path d="M694 345.1C694 353.1 698.7 356.8 704.6 353.5C710.4 350.1 715.2 340.9 715.2 332.9C715.2 324.9 710.5 321.2 704.6 324.5C698.8 327.9 694 337.1 694 345.1Z" fill="#F2994A"/>
<path opacity="0.15" d="M684.5 342.1L623.6 377.2V390.8L684.5 355.7V342.1Z" fill="white"/>
<path opacity="0.15" d="M684.2 369.5L564.9 438.4V452L684.2 383.1V369.5Z" fill="white"/>
<path opacity="0.05" d="M251.6 496L64.5 604V1006.9L251.6 898.9V496Z" fill="url(#paint5_linear_291_5506)"/>
<path opacity="0.3" d="M95.7002 631.2V1034.1L282.8 926.1V523.2L95.7002 631.2ZM221.5 599.8L158.9 635.9V619.8L221.5 583.7V599.8Z" fill="url(#paint6_linear_291_5506)"/>
<path opacity="0.15" d="M264.8 778.3L114.5 865V878.6L264.8 791.9V778.3Z" fill="white"/>
<path opacity="0.15" d="M254.3 810.9L125 885.5V899.1L254.3 824.5V810.9Z" fill="white"/>
<path d="M147.6 744.4C147.6 712.5 166.3 675.8 189.3 662.5C212.3 649.2 231 664.3 231 696.2C231 728.1 212.3 764.8 189.3 778.1C166.3 791.4 147.6 776.3 147.6 744.4Z" fill="#F2994A"/>
<path opacity="0.05" d="M484.6 171.7L297.5 279.7V682.6L484.6 574.6V171.7Z" fill="url(#paint7_linear_291_5506)"/>
<path opacity="0.3" d="M328.7 306.9V709.8L515.8 601.8V198.9L328.7 306.9ZM454.5 275.4L391.9 311.5V295.4L454.5 259.3V275.4Z" fill="url(#paint8_linear_291_5506)"/>
<path opacity="0.15" d="M497.8 453.9L347.5 540.6V554.2L497.8 467.5V453.9Z" fill="white"/>
<path opacity="0.15" d="M487.3 486.6L358 561.2V574.8L487.3 500.2V486.6Z" fill="white"/>
<path d="M380.6 420.1C380.6 388.2 399.3 351.5 422.3 338.2C445.3 324.9 464 340 464 371.9C464 403.8 445.3 440.5 422.3 453.8C399.3 467.1 380.6 452 380.6 420.1Z" fill="#F2C94C"/>
<path opacity="0.3" d="M380.6 644.8L678.1 473L678 628.1L406.8 784.7L380.5 823.6L380.6 644.8Z" fill="url(#paint9_linear_291_5506)"/>
<path d="M709.9 533.5V491.4L597.6 556.2V598.3L709.9 533.5Z" fill="#F2994A"/>
<path opacity="0.15" d="M457.1 638.4L522.3 600.8V614.4L457.1 652V638.4Z" fill="white"/>
<path opacity="0.15" d="M457.1 665.7L582.8 593.2V606.8L457.1 679.3V665.7Z" fill="white"/>
<path opacity="0.15" d="M457 692.9L609.3 605V618.6L457 706.6V692.9Z" fill="white"/>
<path d="M441 661.9C441 674.7 433.4 689.4 424.1 694.8C414.8 700.2 407.2 694.2 407.2 681.4C407.2 668.6 414.8 653.9 424.1 648.5C433.5 643.1 441 649.1 441 661.9Z" fill="#F2994A"/>
<path opacity="0.2" d="M613.9 179.4C607.9 182.8 603.1 191.2 603.1 198.1V228.6L582.9 240.2C576.9 243.6 572.1 252 572.1 258.9C572.1 265.8 576.9 268.6 582.9 265.2L603.1 253.6V284.1C603.1 291 607.9 293.8 613.9 290.4C619.9 287 624.7 278.6 624.7 271.7V241.2L644.9 229.6C650.9 226.2 655.7 217.8 655.7 210.9C655.7 204 650.9 201.2 644.9 204.6L624.7 216.2V185.7C624.7 178.8 619.9 176 613.9 179.4Z" fill="url(#paint10_linear_291_5506)"/>
<defs>
<linearGradient id="paint0_linear_291_5506" x1="-137.748" y1="282.697" x2="198.175" y2="527.743" gradientUnits="userSpaceOnUse">
<stop stop-color="white"/>
<stop offset="1" stop-color="white" stop-opacity="0"/>
</linearGradient>
<linearGradient id="paint1_linear_291_5506" x1="33.4453" y1="47.4759" x2="369.368" y2="292.522" gradientUnits="userSpaceOnUse">
<stop stop-color="white"/>
<stop offset="1" stop-color="white" stop-opacity="0"/>
</linearGradient>
<linearGradient id="paint2_linear_291_5506" x1="-177.748" y1="252.697" x2="158.175" y2="497.743" gradientUnits="userSpaceOnUse">
<stop stop-color="white"/>
<stop offset="1" stop-color="white" stop-opacity="0"/>
</linearGradient>
<linearGradient id="paint3_linear_291_5506" x1="-6.555" y1="17.4758" x2="329.368" y2="262.522" gradientUnits="userSpaceOnUse">
<stop stop-color="white"/>
<stop offset="1" stop-color="white" stop-opacity="0"/>
</linearGradient>
<linearGradient id="paint4_linear_291_5506" x1="617.722" y1="356.571" x2="659.762" y2="429.405" gradientUnits="userSpaceOnUse">
<stop stop-color="white"/>
<stop offset="1" stop-color="white" stop-opacity="0"/>
</linearGradient>
<linearGradient id="paint5_linear_291_5506" x1="49.4451" y1="563.292" x2="281.164" y2="964.746" gradientUnits="userSpaceOnUse">
<stop stop-color="white"/>
<stop offset="1" stop-color="white" stop-opacity="0"/>
</linearGradient>
<linearGradient id="paint6_linear_291_5506" x1="80.6236" y1="590.454" x2="276.503" y2="929.815" gradientUnits="userSpaceOnUse">
<stop stop-color="white"/>
<stop offset="1" stop-color="white" stop-opacity="0"/>
</linearGradient>
<linearGradient id="paint7_linear_291_5506" x1="282.439" y1="238.981" x2="514.157" y2="640.435" gradientUnits="userSpaceOnUse">
<stop stop-color="white"/>
<stop offset="1" stop-color="white" stop-opacity="0"/>
</linearGradient>
<linearGradient id="paint8_linear_291_5506" x1="313.617" y1="266.143" x2="509.496" y2="605.504" gradientUnits="userSpaceOnUse">
<stop stop-color="white"/>
<stop offset="1" stop-color="white" stop-opacity="0"/>
</linearGradient>
<linearGradient id="paint9_linear_291_5506" x1="445.482" y1="582.672" x2="599.132" y2="702.976" gradientUnits="userSpaceOnUse">
<stop stop-color="white"/>
<stop offset="1" stop-color="white" stop-opacity="0"/>
</linearGradient>
<linearGradient id="paint10_linear_291_5506" x1="592.988" y1="218.397" x2="645.346" y2="259.717" gradientUnits="userSpaceOnUse">
<stop stop-color="white"/>
<stop offset="1" stop-color="white" stop-opacity="0"/>
</linearGradient>
</defs>
</svg>
